<?xml version="1.0" encoding="utf-8" ?>
<svg xmlns="http://www.w3.org/2000/svg" xmlns:xlink="http://www.w3.org/1999/xlink" width="512" height="512">
	<path d="M36.8436 183.951C41.4976 170.763 46.2921 157.932 52.7825 145.5C57.1261 137.18 62.1534 129.278 67.491 121.574C89.665 89.5678 119.795 63.1444 155.024 46.3058C181.575 33.6154 210.527 25.5457 239.873 23.2195C242.931 22.9771 245.982 22.525 249.055 22.4157C257.373 22.1197 265.675 22.6572 273.952 23.4055C293.209 25.1464 312.263 28.8159 330.541 35.2631C345.446 40.5206 359.88 47.043 373.466 55.1496C403.23 72.9099 428.837 97.5522 447.584 126.695C452.022 133.594 456.429 140.618 459.963 148.039L466.823 162.482C476.016 184.034 481.799 206.663 484.411 229.915L485.575 246.5C485.692 249.048 485.938 251.574 485.888 254.131C485.661 265.916 484.012 277.767 482.363 289.423L478.865 306.509L477.703 311.456C477.555 312.004 477.44 312.859 477.131 313.309C476.898 315.019 476.283 316.723 475.787 318.37L472.997 327.25C468.462 341.674 461.875 355.412 454.218 368.419C449.212 376.923 443.805 385.345 437.715 393.125C404.939 435.003 358.833 464.926 306.875 476.618C299.346 478.312 291.547 479.663 283.875 480.487L274.53 481.293C271.392 481.714 268.096 481.638 264.928 481.751C254.067 482.14 243.517 481.985 232.717 480.765C220.494 479.384 208.239 477.303 196.337 474.15C174.023 468.239 152.401 458.764 132.875 446.463L117.022 435.456C109.019 429.751 101.553 422.871 94.571 415.974C62.836 384.625 41.3801 344.89 31.7265 301.403C29.9346 293.332 28.8409 285.001 27.6437 276.822C27.2553 274.168 27.1734 271.431 26.7046 268.793C26.2316 266.131 26.3972 263.098 26.3009 260.378C25.7827 245.751 26.9064 231.232 29.0952 216.759L36.8436 183.951ZM324.174 279.486L327.762 266.716C328.131 263.721 328.72 260.803 328.97 257.785C329.493 251.492 329.152 244.538 327.774 238.361C323.232 218.009 311.943 200.677 294.019 189.625C282.406 182.464 267.629 178.337 253.95 178.732C248.515 178.888 243.084 179.87 237.806 181.118C232.411 182.393 227.392 184.55 222.436 186.975C206.266 194.888 192.821 211.352 187.237 228.375C183.276 240.447 181.237 254.048 183.957 266.652C184.428 268.833 184.726 271.094 185.313 273.249C189.74 289.488 201.281 305.242 215.412 314.456C232.699 325.73 252.78 329.672 272.968 325.239C291.082 321.261 307.155 309.539 317.03 293.932C319.907 289.386 322.378 284.565 324.174 279.486ZM174.614 83.7473C169.779 85.4221 165.035 89.0124 160.766 91.8264C154.051 96.2513 147.492 100.494 141.271 105.635C138.035 108.31 134.393 111.404 132.491 115.227C131.772 116.673 131.445 117.623 131.79 119.25C133.022 120.939 134.388 122.667 136.625 122.944C136.944 122.983 137.042 122.938 137.317 122.868C138.698 122.173 140.159 121.511 141.471 120.694C145.347 118.28 148.988 114.919 152.554 112.058L163.457 104.037L170.129 99.6828C173.609 97.6188 177.562 96.1283 180.303 93.0369C180.784 90.79 180.855 88.858 179.577 86.8019C178.586 85.2089 176.977 84.1756 175.167 83.8382L174.614 83.7473ZM114.396 136.375C109.887 138.388 106.434 142.55 103.595 146.467C100.877 150.218 98.4816 154.033 96.2081 158.061C91.8761 165.737 88.0322 173.48 84.5475 181.578C85.7312 184.024 86.8778 186.38 89.599 187.365L90.4281 187.631C92.4204 187.425 93.3712 186.903 94.875 185.593L95.1316 185.375C97.0749 183.693 97.7814 181.183 98.7267 178.895C99.5866 176.813 100.504 174.772 101.559 172.781C103.42 169.267 105.145 165.599 107.191 162.194C110.712 156.335 115.27 151.109 118.294 144.941C118.976 143.549 119.833 142.07 119.937 140.5C119.621 139.428 119.372 138.683 118.625 137.846L118.455 137.649C117.712 136.823 116.238 136.206 115.126 136.248C114.74 136.262 114.718 136.285 114.396 136.375ZM144.226 148.745C141.811 149.731 139.758 150.761 137.936 152.706C134.222 156.672 131.661 161.819 128.958 166.5L122.844 176.86C120.658 180.617 117.987 184.374 116.291 188.373C115.587 190.035 114.449 193.144 115.095 194.901C115.504 196.012 116.817 197.046 117.875 197.483C118.772 197.853 120.153 198.304 121.125 198.249C123.394 197.682 124.93 196.383 126.128 194.405C130.004 188.005 133.205 181.123 137.343 174.875L145 164.005C146.276 162.252 147.702 160.679 148.73 158.75C149.606 157.106 150.274 154.99 149.791 153.136L149.411 152.052L149.272 151.687C148.886 150.721 148.35 150.107 147.62 149.38C146.439 148.995 145.489 148.735 144.226 148.745ZM186.897 113.731C175.594 118.975 165.018 126.599 155.837 134.972C153.438 137.16 149.984 140.122 148.822 143.173C148.128 144.995 147.959 146.69 148.792 148.485C149.5 150.013 150.079 150.493 151.695 151.08C152.621 151.417 153.467 151.419 154.358 150.981C160.761 147.666 165.267 142.615 170.998 138.407L184.837 128.34C187.078 126.778 189.674 125.523 191.755 123.75C192.626 123.007 193.099 121.941 193.425 120.862C193.807 119.599 193.341 118.147 192.723 117.031C191.811 115.384 189.981 114.35 188.208 113.886C187.726 113.759 187.387 113.713 186.897 113.731ZM128.491 120.125C126.677 120.995 125.104 121.92 123.442 123.037C120.028 125.33 118.507 129.217 117.52 133.023C118.392 135.006 118.735 136.288 120.927 137.131L122.995 137.84C127.322 136.282 130.553 134.739 132.593 130.409C133.739 127.979 134.224 125.429 133.243 122.848C132.884 121.903 131.867 120.726 130.91 120.354C130.082 120.032 129.35 119.895 128.491 120.125ZM29.0952 216.759C29.2796 216.788 29.452 217.002 29.5932 217.124L29.8319 216.829L30.0973 217.183L30.1625 216.375L30.7457 213.545L31.2974 210.546C31.4291 210.011 31.5508 209.597 31.5945 209.042L31.6625 208.375C32.0112 207.339 31.7956 208.478 31.9589 207.453L34.7524 195.375C35.0734 194.289 35.2179 192.9 35.6725 191.887C35.9437 191.283 36.037 190.624 36.2515 190C36.3966 189.578 36.5356 189.243 36.6229 188.799L36.7403 188.25C36.9836 187.619 36.9027 188.061 36.9965 187.577L37.1551 186.743C37.3486 186.167 37.6183 185.638 37.5675 185C37.5192 184.392 37.2616 184.339 36.8436 183.951L29.0952 216.759ZM477.131 313.309C477.44 312.859 477.555 312.004 477.703 311.456L478.865 306.509L482.363 289.423L482.24 289.141C482.075 288.689 482.101 288.346 482.123 287.875C481.941 287.528 481.774 287.282 481.501 287.001L481.19 288.57C481.022 289.478 481.369 290.761 480.877 291.5L480.825 292.75L480.625 292.377C480.338 292.838 480.394 292.599 480.398 293.034C480.405 293.752 480.318 293.985 480.127 294.625L480.101 295.414C480.078 295.984 480.091 295.303 479.877 296.125L479.846 297.882L479.532 297.501L479.478 297.915L478.99 300.423C478.848 300.984 478.809 301.445 478.819 302.019L478.56 301.751L478.528 302C478.355 303.25 477.871 304.297 477.59 305.501L476.286 311.582C476.204 311.973 475.85 312.775 475.877 313.125C475.902 313.433 476.232 313.905 476.392 314.142L476.567 313.851C476.833 313.437 476.708 313.581 477.131 313.309ZM327.762 266.716L324.174 279.486L324.871 279.753L325 280.125C325.301 279.681 325.355 279.352 325.563 278.875C325.848 278.219 326.009 277.619 326.251 276.947C326.46 276.368 326.506 275.824 326.681 275.259C326.836 274.758 327.087 274.332 327.213 273.791L328.39 268.812L327.816 268.701C327.698 268.032 327.744 267.392 327.762 266.716Z"/>
	<path fill="#010000" fill-opacity="0.96078432" d="M327.762 266.716C327.744 267.392 327.698 268.032 327.816 268.701L328.39 268.812L327.213 273.791C327.087 274.332 326.836 274.758 326.681 275.259C326.506 275.824 326.46 276.368 326.251 276.947C326.009 277.619 325.848 278.219 325.563 278.875C325.355 279.352 325.301 279.681 325 280.125L324.871 279.753L324.174 279.486L327.762 266.716Z"/>
	<path fill="#010000" fill-opacity="0.96078432" d="M477.131 313.309C476.708 313.581 476.833 313.437 476.567 313.851L476.392 314.142C476.232 313.905 475.902 313.433 475.877 313.125C475.85 312.775 476.204 311.973 476.286 311.582L477.59 305.501C477.871 304.297 478.355 303.25 478.528 302L478.56 301.751L478.819 302.019C478.809 301.445 478.848 300.984 478.99 300.423L479.478 297.915L479.532 297.501L479.846 297.882L479.877 296.125C480.091 295.303 480.078 295.984 480.101 295.414L480.127 294.625C480.318 293.985 480.405 293.752 480.398 293.034C480.394 292.599 480.338 292.838 480.625 292.377L480.825 292.75L480.877 291.5C481.369 290.761 481.022 289.478 481.19 288.57L481.501 287.001C481.774 287.282 481.941 287.528 482.123 287.875C482.101 288.346 482.075 288.689 482.24 289.141L482.363 289.423L478.865 306.509L477.703 311.456C477.555 312.004 477.44 312.859 477.131 313.309Z"/>
	<path fill="#010000" fill-opacity="0.96078432" d="M29.0952 216.759L36.8436 183.951C37.2616 184.339 37.5192 184.392 37.5675 185C37.6183 185.638 37.3486 186.167 37.1551 186.743L36.9965 187.577C36.9027 188.061 36.9836 187.619 36.7403 188.25L36.6229 188.799C36.5356 189.243 36.3966 189.578 36.2515 190C36.037 190.624 35.9437 191.283 35.6725 191.887C35.2179 192.9 35.0734 194.289 34.7524 195.375L31.9589 207.453C31.7956 208.478 32.0112 207.339 31.6625 208.375L31.5945 209.042C31.5508 209.597 31.4291 210.011 31.2974 210.546L30.7457 213.545L30.1625 216.375L30.0973 217.183L29.8319 216.829L29.5932 217.124C29.452 217.002 29.2796 216.788 29.0952 216.759Z"/>
	<path d="M253.904 238.818C257.387 238.554 260.727 239.211 263.736 241.02C266.672 242.784 269.506 246.078 270.242 249.498C271.047 253.24 270.6 257.46 268.395 260.669C266.028 264.114 262.882 265.903 258.861 266.702C256.673 266.738 254.333 266.82 252.195 266.275C248.601 265.359 245.74 263.112 243.86 259.957C242.031 256.886 241.465 252.67 242.379 249.221L242.507 248.75C243.025 246.752 243.977 244.688 245.414 243.177L245.663 242.921C248.029 240.462 250.61 239.438 253.904 238.818Z"/>
</svg>
