<?xml version="1.0" encoding="utf-8" ?>
<svg xmlns="http://www.w3.org/2000/svg" xmlns:xlink="http://www.w3.org/1999/xlink" width="512" height="512">
	<path d="M261.014 494.075C254.915 494.091 248.709 494.324 242.622 493.941C182.46 490.158 125.437 462.53 85.4184 417.222L73.3266 402.073C35.8306 352.799 18.6099 290.051 25.7468 228.625C37.5303 127.206 109.925 47.4636 208.742 24.9876L240.892 19.8901C244.429 19.3514 247.849 18.3061 251.404 17.8395L253.551 17.7256C260.904 17.4947 267.783 19.5368 275.044 20.3817C299.323 23.207 323.697 29.0773 346.24 38.6256C403.651 62.9422 451.196 113.486 472.835 171.949C486.93 210.031 490.973 249.825 485.678 289.968C474.502 374.704 419.352 445.488 340.842 477.729C314.62 488.497 289.301 493.437 261.014 494.075ZM267.446 69.7928C256.227 73.1132 258.383 89.2599 269.233 90.687C272.015 91.0529 290.852 92.4221 292.414 92.2126C302.063 89.397 302.445 76.6389 293.89 72.4059C289.996 70.4797 272.12 69.5345 267.446 69.7928ZM326.637 87.2653C318.601 90.3298 314.674 101.406 322.623 107.083C326.391 109.775 331.125 111.624 335.19 113.883C353.113 123.839 368.485 138.123 380.831 154.42C386.485 161.883 389.389 171.671 400.42 169.924C409.439 166.99 410.675 160.12 405.289 152.673L399.611 145.126C382.363 122.448 360.107 100.434 333.547 88.8924C331.246 87.8925 329.183 87.1416 326.637 87.2653ZM252.422 155.631C228.61 156.62 204.031 167.302 187.765 184.901C149.271 226.545 149.546 292.506 192.893 330.875C211.127 347.015 235.419 355.838 259.781 354.818C309.618 352.91 347.568 311.932 352.105 263.52C357.452 206.45 312.052 153.105 253.571 155.553L252.422 155.631ZM414.211 183.084C400.801 185.485 405.183 197.248 408.429 206.281C410.928 213.232 412.674 222.44 421.879 221.987C426.086 221.144 429.981 218.278 430.778 213.875L430.849 213.5C431.648 208.762 428.965 202.473 427.593 197.944C425.418 190.765 423.817 182.218 414.211 183.084ZM88.3317 285.815C75.9948 287.84 78.4959 298.872 81.0181 308.05C83.0454 315.427 85.7091 321.637 94.6044 320.528C100.697 318.92 105.023 312.937 103.306 306.601C102.665 304.238 101.546 301.943 100.744 299.625C98.3285 292.648 96.9752 286.107 88.3317 285.815ZM110.317 332.597C104.221 333.166 99.9939 337.081 100.765 343.611C101.675 351.316 127.095 378.49 133.442 384.568C141.007 391.814 173.626 417.696 184.757 417.837C189.306 416.735 192.704 413.943 193.55 409.25L193.619 408.883C195.139 400.028 185.756 396.382 179.5 393.012L171.017 388.061C154.336 377.615 140.078 363.975 128.144 348.345L122.074 340.006C120.526 337.795 119.055 335.496 117.125 333.597L116.918 333.381C115.81 332.306 112.02 332.467 110.526 332.576L110.317 332.597ZM217.426 411.309C207.514 414.169 206.221 427.555 215.786 432.203C218.556 433.549 237.577 435.762 240.43 435.419C248.858 432.778 252.28 420.223 243.399 415.729C241.044 414.537 220.368 411.185 217.426 411.309Z"/>
	<path d="M260.497 297.732C239.567 300.921 219.377 283.782 216.292 263.402C212.676 239.505 228.177 217.12 252.377 213.839C288.371 210.618 309.424 253.732 287.74 281.713C280.944 290.482 271.6 296.37 260.497 297.732ZM253.748 242.3C235.111 247.465 242.051 270.073 257.561 268.929C274.646 265.913 270.939 240.404 253.748 242.3Z"/>
</svg>
