<?xml version="1.0" standalone="no"?>
<!DOCTYPE svg PUBLIC "-//W3C//DTD SVG 20010904//EN"
 "http://www.w3.org/TR/2001/REC-SVG-20010904/DTD/svg10.dtd">
<svg version="1.0" xmlns="http://www.w3.org/2000/svg"
 width="512.000000pt" height="512.000000pt" viewBox="0 0 512.000000 512.000000"
 preserveAspectRatio="xMidYMid meet">

<g transform="translate(0.000000,512.000000) scale(0.100000,-0.100000)"
fill="#000000" stroke="none">
<path d="M3158 4420 c-47 -14 -85 -48 -102 -90 -14 -37 -16 -202 -16 -1772 0
-1731 0 -1732 21 -1774 56 -118 222 -118 278 0 21 42 21 43 21 1776 0 1733 0
1734 -21 1776 -32 67 -114 105 -181 84z"/>
<path d="M2518 3780 c-47 -14 -85 -48 -102 -90 -14 -36 -16 -151 -16 -1132 0
-1084 0 -1092 21 -1134 56 -118 222 -118 278 0 21 42 21 50 21 1136 0 1086 0
1094 -21 1136 -32 67 -114 105 -181 84z"/>
<path d="M1200 3548 c-18 -13 -43 -36 -54 -51 -21 -28 -21 -31 -21 -937 0
-906 0 -909 21 -937 73 -98 195 -98 268 0 21 28 21 31 21 937 0 906 0 909 -21
937 -35 48 -82 73 -134 73 -32 0 -57 -7 -80 -22z"/>
<path d="M3772 3344 c-18 -10 -45 -33 -60 -52 l-27 -35 -3 -684 c-3 -763 -6
-726 66 -781 29 -22 46 -27 92 -27 46 0 63 5 92 27 71 54 68 20 68 768 0 746
3 714 -67 767 -43 33 -114 41 -161 17z"/>
<path d="M1878 3140 c-47 -14 -85 -48 -102 -90 -14 -35 -16 -100 -16 -492 0
-436 1 -453 21 -494 56 -118 222 -118 278 0 20 41 21 58 21 496 0 438 -1 455
-21 496 -32 67 -114 105 -181 84z"/>
<path d="M560 2908 c-18 -13 -43 -36 -54 -51 -20 -27 -21 -40 -21 -297 0 -257
1 -270 21 -297 73 -98 195 -98 268 0 20 27 21 40 21 297 0 257 -1 270 -21 297
-35 48 -82 73 -134 73 -32 0 -57 -7 -80 -22z"/>
<path d="M4400 2908 c-18 -13 -43 -36 -54 -51 -20 -27 -21 -40 -21 -297 0
-257 1 -270 21 -297 73 -98 195 -98 268 0 20 27 21 40 21 297 0 257 -1 270
-21 297 -35 48 -82 73 -134 73 -32 0 -57 -7 -80 -22z"/>
</g>
</svg>
